<svg width="42" height="41" viewBox="0 0 42 41" fill="none" xmlns="http://www.w3.org/2000/svg">
<path d="M21.3609 1.70837C17.6528 1.70837 14.028 2.81049 10.9448 4.87534C7.86166 6.9402 5.45862 9.87505 4.03959 13.3088C2.62057 16.7425 2.24928 20.5209 2.9727 24.1661C3.69611 27.8113 5.48173 31.1597 8.10375 33.7878C10.7258 36.4158 14.0664 38.2055 17.7033 38.9306C21.3401 39.6557 25.1098 39.2836 28.5356 37.8613C31.9615 36.439 34.8896 34.0304 36.9497 30.9401C39.0098 27.8499 40.1094 24.2167 40.1094 20.5C40.1094 15.5162 38.1341 10.7364 34.6181 7.21233C31.1021 3.68821 26.3333 1.70837 21.3609 1.70837V1.70837ZM21.3609 35.875C18.327 35.875 15.3613 34.9733 12.8387 33.2839C10.3161 31.5945 8.34995 29.1932 7.18892 26.3838C6.0279 23.5744 5.72413 20.483 6.31601 17.5005C6.90789 14.5181 8.36885 11.7785 10.5141 9.62827C12.6594 7.47804 15.3927 6.01371 18.3683 5.42047C21.3439 4.82722 24.4282 5.1317 27.2311 6.29539C30.0341 7.45909 32.4298 9.42974 34.1154 11.9581C35.8009 14.4866 36.7006 17.4592 36.7006 20.5C36.7006 24.5777 35.0844 28.4884 32.2077 31.3718C29.3309 34.2552 25.4292 35.875 21.3609 35.875V35.875ZM24.7697 11.9584V10.25C24.7697 9.79696 24.5902 9.36244 24.2705 9.04207C23.9509 8.72169 23.5174 8.54171 23.0653 8.54171C22.6133 8.54171 22.1798 8.72169 21.8601 9.04207C21.5405 9.36244 21.3609 9.79696 21.3609 10.25V11.9584H19.6565V10.25C19.6565 9.79696 19.4769 9.36244 19.1573 9.04207C18.8377 8.72169 18.4041 8.54171 17.9521 8.54171C17.5001 8.54171 17.0665 8.72169 16.7469 9.04207C16.4273 9.36244 16.2477 9.79696 16.2477 10.25V11.9584H14.5433C14.0913 11.9584 13.6577 12.1384 13.3381 12.4587C13.0185 12.7791 12.8389 13.2136 12.8389 13.6667C12.8389 14.1198 13.0185 14.5543 13.3381 14.8747C13.6577 15.1951 14.0913 15.375 14.5433 15.375H16.2477V25.625H14.5433C14.0913 25.625 13.6577 25.805 13.3381 26.1254C13.0185 26.4458 12.8389 26.8803 12.8389 27.3334C12.8389 27.7865 13.0185 28.221 13.3381 28.5414C13.6577 28.8617 14.0913 29.0417 14.5433 29.0417H16.2477V30.75C16.2477 31.2031 16.4273 31.6376 16.7469 31.958C17.0665 32.2784 17.5001 32.4584 17.9521 32.4584C18.4041 32.4584 18.8377 32.2784 19.1573 31.958C19.4769 31.6376 19.6565 31.2031 19.6565 30.75V29.0417H21.3609V30.75C21.3609 31.2031 21.5405 31.6376 21.8601 31.958C22.1798 32.2784 22.6133 32.4584 23.0653 32.4584C23.5174 32.4584 23.9509 32.2784 24.2705 31.958C24.5902 31.6376 24.7697 31.2031 24.7697 30.75V29.0417C26.1258 29.0417 27.4264 28.5018 28.3853 27.5406C29.3442 26.5795 29.8829 25.2759 29.8829 23.9167C29.8801 22.6547 29.4128 21.4381 28.5706 20.5C29.4128 19.562 29.8801 18.3454 29.8829 17.0834C29.8829 15.7241 29.3442 14.4206 28.3853 13.4595C27.4264 12.4983 26.1258 11.9584 24.7697 11.9584V11.9584ZM24.7697 25.625H19.6565V22.2084H24.7697C25.2218 22.2084 25.6553 22.3884 25.9749 22.7087C26.2946 23.0291 26.4741 23.4636 26.4741 23.9167C26.4741 24.3698 26.2946 24.8043 25.9749 25.1247C25.6553 25.4451 25.2218 25.625 24.7697 25.625ZM24.7697 18.7917H19.6565V15.375H24.7697C25.2218 15.375 25.6553 15.555 25.9749 15.8754C26.2946 16.1958 26.4741 16.6303 26.4741 17.0834C26.4741 17.5365 26.2946 17.971 25.9749 18.2913C25.6553 18.6117 25.2218 18.7917 24.7697 18.7917Z" fill="black"/>
</svg>
