<svg width="34" height="34" viewBox="0 0 34 34" fill="none" xmlns="http://www.w3.org/2000/svg">
<path d="M11.996 11.8923L11.9928 11.8949L11.9898 11.8979L11.996 11.8923ZM26.0976 11.6281C25.9991 11.5331 25.8897 11.45 25.7718 11.3804C25.6049 11.2822 25.4196 11.2192 25.2274 11.1955C25.0352 11.1717 24.8402 11.1876 24.6544 11.2422C24.4686 11.2968 24.2959 11.3889 24.1471 11.5129C23.9983 11.6368 23.8766 11.79 23.7893 11.9629C23.3013 12.9244 22.6283 13.78 21.8088 14.4808C21.9341 13.7747 21.9973 13.059 21.9977 12.3419C22.0003 10.1604 21.4248 8.01715 20.3298 6.13036C19.2347 4.24358 17.6593 2.68067 15.7638 1.60076C15.555 1.4824 15.3195 1.41902 15.0795 1.41658C14.8395 1.41413 14.6028 1.47271 14.3916 1.5868C14.1805 1.70089 14.0017 1.86676 13.8722 2.06885C13.7427 2.27093 13.6667 2.50261 13.6512 2.74213C13.5719 4.08538 13.2208 5.39855 12.619 6.60207C12.0173 7.8056 11.1774 8.87443 10.1504 9.74381L9.8239 10.0094C8.74994 10.7321 7.79933 11.6229 7.00856 12.6477C5.77934 14.1963 4.92782 16.0099 4.52154 17.9449C4.11526 19.8798 4.16538 21.8828 4.66794 23.795C5.17049 25.7072 6.11166 27.476 7.4168 28.9611C8.72193 30.4463 10.3551 31.6069 12.1869 32.351C12.402 32.4389 12.6354 32.4725 12.8665 32.4488C13.0977 32.4252 13.3194 32.345 13.5123 32.2154C13.7051 32.0858 13.8631 31.9108 13.9722 31.7057C14.0814 31.5006 14.1385 31.2718 14.1383 31.0395C14.1373 30.8892 14.1135 30.7399 14.0678 30.5968C13.7508 29.4054 13.6595 28.1652 13.7987 26.9403C15.1392 29.4686 17.2909 31.4727 19.908 32.6304C20.2275 32.7734 20.5886 32.7926 20.9214 32.6844C22.9892 32.017 24.8519 30.832 26.3326 29.242C27.8134 27.6519 28.8629 25.7097 29.3816 23.5997C29.9003 21.4898 29.8708 19.2823 29.2961 17.187C28.7213 15.0916 27.6203 13.1781 26.0976 11.6281V11.6281ZM20.5659 29.8054C19.331 29.1796 18.2416 28.3008 17.3687 27.2263C16.4957 26.1518 15.8586 24.9056 15.4989 23.5688C15.3891 23.1186 15.3041 22.6628 15.2444 22.2033C15.2039 21.9107 15.073 21.638 14.87 21.4235C14.6669 21.2089 14.4019 21.0631 14.112 21.0066C14.0227 20.989 13.9319 20.9802 13.8408 20.9803C13.5918 20.9802 13.3472 21.0458 13.1316 21.1704C12.9161 21.295 12.7372 21.4742 12.613 21.69C11.4375 23.7175 10.8464 26.0308 10.9051 28.3736C9.87127 27.5698 9.00726 26.5688 8.36314 25.4286C7.71902 24.2884 7.3076 23.0317 7.15273 21.7314C6.99786 20.431 7.10262 19.1129 7.46093 17.8533C7.81924 16.5937 8.42399 15.4178 9.24011 14.3937C9.85978 13.5888 10.6073 12.891 11.4529 12.3282C11.4896 12.3045 11.5247 12.2787 11.5581 12.2507C11.5581 12.2507 11.9784 11.9029 11.9928 11.895C14.0111 10.1878 15.4466 7.8936 16.0993 5.33198C17.6429 6.75889 18.6721 8.65552 19.0272 10.7274C19.3823 12.7992 19.0434 14.9303 18.0631 16.7898C17.9336 17.038 17.8805 17.3189 17.9105 17.5972C17.9404 17.8755 18.0521 18.1386 18.2315 18.3535C18.4108 18.5684 18.6498 18.7253 18.9183 18.8046C19.1867 18.8838 19.4726 18.8817 19.7399 18.7987C21.9099 18.1184 23.8195 16.7897 25.2115 14.9914C26.0481 16.2271 26.5951 17.6357 26.8116 19.1123C27.0282 20.5888 26.9087 22.0951 26.4622 23.5191C26.0156 24.943 25.2535 26.2478 24.2326 27.3363C23.2117 28.4247 21.9583 29.2687 20.5658 29.8055L20.5659 29.8054Z" fill="black"/>
</svg>
