<svg width="34" height="34" viewBox="0 0 34 34" fill="none" xmlns="http://www.w3.org/2000/svg">
<path d="M17 2.83325C14.1981 2.83325 11.4591 3.66411 9.12941 5.22077C6.79971 6.77742 4.98393 8.98995 3.91169 11.5786C2.83945 14.1672 2.5589 17.0156 3.10553 19.7637C3.65215 22.5118 5.0014 25.036 6.98264 27.0173C8.96388 28.9985 11.4881 30.3478 14.2362 30.8944C16.9843 31.441 19.8327 31.1605 22.4213 30.0882C25.01 29.016 27.2225 27.2002 28.7791 24.8705C30.3358 22.5408 31.1667 19.8018 31.1667 16.9999C31.1667 15.1395 30.8002 13.2973 30.0883 11.5786C29.3763 9.85979 28.3328 8.29807 27.0173 6.98257C25.7018 5.66708 24.1401 4.62357 22.4213 3.91163C20.7026 3.19968 18.8604 2.83325 17 2.83325V2.83325ZM18.4167 28.2341V26.9166C18.4167 26.5409 18.2674 26.1805 18.0017 25.9148C17.736 25.6492 17.3757 25.4999 17 25.4999C16.6243 25.4999 16.2639 25.6492 15.9983 25.9148C15.7326 26.1805 15.5833 26.5409 15.5833 26.9166V28.2341C13.09 27.9179 10.7724 26.7819 8.99523 25.0047C7.21804 23.2275 6.08201 20.9099 5.76582 18.4166H7.08332C7.45904 18.4166 7.81938 18.2673 8.08505 18.0017C8.35073 17.736 8.49999 17.3756 8.49999 16.9999C8.49999 16.6242 8.35073 16.2639 8.08505 15.9982C7.81938 15.7325 7.45904 15.5833 7.08332 15.5833H5.76582C6.08201 13.0899 7.21804 10.7724 8.99523 8.99516C10.7724 7.21797 13.09 6.08194 15.5833 5.76575V7.08325C15.5833 7.45898 15.7326 7.81931 15.9983 8.08499C16.2639 8.35066 16.6243 8.49992 17 8.49992C17.3757 8.49992 17.736 8.35066 18.0017 8.08499C18.2674 7.81931 18.4167 7.45898 18.4167 7.08325V5.76575C20.91 6.08194 23.2275 7.21797 25.0047 8.99516C26.7819 10.7724 27.918 13.0899 28.2342 15.5833H26.9167C26.5409 15.5833 26.1806 15.7325 25.9149 15.9982C25.6492 16.2639 25.5 16.6242 25.5 16.9999C25.5 17.3756 25.6492 17.736 25.9149 18.0017C26.1806 18.2673 26.5409 18.4166 26.9167 18.4166H28.2342C27.918 20.9099 26.7819 23.2275 25.0047 25.0047C23.2275 26.7819 20.91 27.9179 18.4167 28.2341ZM21.4483 10.6958L14.365 13.6991C14.0348 13.8422 13.7714 14.1055 13.6283 14.4358L10.625 21.5191C10.5134 21.7789 10.4821 22.0661 10.5351 22.3438C10.5882 22.6215 10.7231 22.877 10.9225 23.0774C11.184 23.3443 11.5405 23.4971 11.9142 23.5024C12.1102 23.5026 12.3038 23.459 12.4808 23.3749L19.5642 20.3716C19.8944 20.2285 20.1577 19.9651 20.3008 19.6349L23.3042 12.5516C23.4136 12.292 23.4432 12.0057 23.3891 11.7292C23.3351 11.4527 23.1998 11.1986 23.0006 10.9993C22.8013 10.8001 22.5472 10.6648 22.2708 10.6108C21.9943 10.5567 21.7079 10.5863 21.4483 10.6958V10.6958ZM17.9208 17.9208L14.6908 19.3374L16.1075 16.1074L19.3375 14.6908L17.9208 17.9208Z" fill="black"/>
</svg>
