<svg viewBox="0 0 37 37" fill="none" xmlns="http://www.w3.org/2000/svg">
<path d="M27.75 6.90667C25.2967 4.45342 21.9694 3.0752 18.5 3.0752C15.0306 3.0752 11.7032 4.45342 9.24999 6.90667C6.79674 9.35992 5.41852 12.6872 5.41852 16.1567C5.41852 19.6261 6.79674 22.9534 9.24999 25.4067L17.3746 33.5467C17.5179 33.6912 17.6884 33.8059 17.8763 33.8841C18.0641 33.9624 18.2656 34.0027 18.4692 34.0027C18.6727 34.0027 18.8742 33.9624 19.062 33.8841C19.2499 33.8059 19.4204 33.6912 19.5637 33.5467L27.75 25.3296C30.193 22.8865 31.5655 19.5731 31.5655 16.1181C31.5655 12.6632 30.193 9.34972 27.75 6.90667V6.90667ZM25.5454 23.125L18.5 30.2013L11.4546 23.125C10.0627 21.7318 9.11506 19.9573 8.73152 18.0256C8.34798 16.094 8.54574 14.092 9.2998 12.2727C10.0538 10.4535 11.3303 8.89858 12.9679 7.80466C14.6055 6.71073 16.5306 6.12687 18.5 6.12687C20.4693 6.12687 22.3945 6.71073 24.0321 7.80466C25.6696 8.89858 26.9461 10.4535 27.7002 12.2727C28.4542 14.092 28.652 16.094 28.2685 18.0256C27.8849 19.9573 26.9373 21.7318 25.5454 23.125V23.125ZM13.875 11.4238C12.6304 12.6722 11.9316 14.363 11.9316 16.1258C11.9316 17.8886 12.6304 19.5795 13.875 20.8279C14.7996 21.7541 15.9772 22.3867 17.26 22.6462C18.5427 22.9057 19.8735 22.7806 21.0855 22.2866C22.2974 21.7926 23.3365 20.9517 24.0723 19.8694C24.8082 18.7871 25.208 17.5116 25.2217 16.2029C25.2286 15.3291 25.0603 14.4628 24.7266 13.6551C24.393 12.8475 23.9008 12.115 23.2792 11.5008C22.6682 10.8758 21.9396 10.3778 21.1354 10.0354C20.3311 9.69307 19.4671 9.51313 18.5931 9.50597C17.7191 9.4988 16.8523 9.66455 16.0425 9.99369C15.2328 10.3228 14.4962 10.8088 13.875 11.4238V11.4238ZM21.1054 18.6388C20.5212 19.2319 19.7491 19.6037 18.9211 19.6906C18.0931 19.7774 17.2606 19.574 16.566 19.115C15.8714 18.656 15.3578 17.97 15.113 17.1743C14.8682 16.3786 14.9074 15.5225 15.2239 14.7525C15.5404 13.9824 16.1146 13.3462 16.8482 12.9527C17.5819 12.5591 18.4295 12.4326 19.2461 12.5948C20.0627 12.757 20.7976 13.1978 21.3251 13.8419C21.8527 14.486 22.1401 15.2933 22.1383 16.1258C22.1159 17.0775 21.7167 17.9813 21.0283 18.6388H21.1054Z" fill="black"/>
</svg>
