<svg width="41" height="42" viewBox="0 0 41 42" fill="none" xmlns="http://www.w3.org/2000/svg">
<path d="M20.4529 2.70837C16.7448 2.70837 13.12 3.81049 10.0368 5.87534C6.95361 7.9402 4.55058 10.8751 3.13155 14.3088C1.71252 17.7425 1.34124 21.5209 2.06465 25.1661C2.78807 28.8113 4.57369 32.1597 7.19571 34.7878C9.81773 37.4158 13.1584 39.2055 16.7952 39.9306C20.4321 40.6557 24.2018 40.2836 27.6276 38.8613C31.0534 37.439 33.9815 35.0304 36.0417 31.9401C38.1018 28.8499 39.2013 25.2167 39.2013 21.5C39.2013 16.5162 37.2261 11.7364 33.71 8.21233C30.194 4.68821 25.4253 2.70837 20.4529 2.70837V2.70837ZM20.4529 36.875C17.419 36.875 14.4532 35.9733 11.9306 34.2839C9.40802 32.5945 7.4419 30.1932 6.28088 27.3838C5.11986 24.5744 4.81608 21.483 5.40797 18.5005C5.99985 15.5181 7.46081 12.7785 9.6061 10.6283C11.7514 8.47804 14.4847 7.01371 17.4603 6.42047C20.4359 5.82722 23.5201 6.1317 26.3231 7.29539C29.1261 8.45909 31.5218 10.4297 33.2073 12.9581C34.8929 15.4866 35.7925 18.4592 35.7925 21.5C35.7925 25.5777 34.1764 29.4884 31.2996 32.3718C28.4229 35.2552 24.5212 36.875 20.4529 36.875V36.875ZM23.8617 12.9584V11.25C23.8617 10.797 23.6821 10.3624 23.3625 10.0421C23.0428 9.72169 22.6093 9.54171 22.1573 9.54171C21.7052 9.54171 21.2717 9.72169 20.9521 10.0421C20.6324 10.3624 20.4529 10.797 20.4529 11.25V12.9584H18.7485V11.25C18.7485 10.797 18.5689 10.3624 18.2493 10.0421C17.9296 9.72169 17.4961 9.54171 17.0441 9.54171C16.592 9.54171 16.1585 9.72169 15.8389 10.0421C15.5192 10.3624 15.3397 10.797 15.3397 11.25V12.9584H13.6352C13.1832 12.9584 12.7497 13.1384 12.4301 13.4587C12.1104 13.7791 11.9308 14.2136 11.9308 14.6667C11.9308 15.1198 12.1104 15.5543 12.4301 15.8747C12.7497 16.1951 13.1832 16.375 13.6352 16.375H15.3397V26.625H13.6352C13.1832 26.625 12.7497 26.805 12.4301 27.1254C12.1104 27.4458 11.9308 27.8803 11.9308 28.3334C11.9308 28.7865 12.1104 29.221 12.4301 29.5414C12.7497 29.8617 13.1832 30.0417 13.6352 30.0417H15.3397V31.75C15.3397 32.2031 15.5192 32.6376 15.8389 32.958C16.1585 33.2784 16.592 33.4584 17.0441 33.4584C17.4961 33.4584 17.9296 33.2784 18.2493 32.958C18.5689 32.6376 18.7485 32.2031 18.7485 31.75V30.0417H20.4529V31.75C20.4529 32.2031 20.6324 32.6376 20.9521 32.958C21.2717 33.2784 21.7052 33.4584 22.1573 33.4584C22.6093 33.4584 23.0428 33.2784 23.3625 32.958C23.6821 32.6376 23.8617 32.2031 23.8617 31.75V30.0417C25.2178 30.0417 26.5184 29.5018 27.4773 28.5406C28.4362 27.5795 28.9749 26.2759 28.9749 24.9167C28.9721 23.6547 28.5048 22.4381 27.6625 21.5C28.5048 20.562 28.9721 19.3454 28.9749 18.0834C28.9749 16.7241 28.4362 15.4206 27.4773 14.4595C26.5184 13.4983 25.2178 12.9584 23.8617 12.9584V12.9584ZM23.8617 26.625H18.7485V23.2084H23.8617C24.3137 23.2084 24.7472 23.3884 25.0669 23.7087C25.3865 24.0291 25.5661 24.4636 25.5661 24.9167C25.5661 25.3698 25.3865 25.8043 25.0669 26.1247C24.7472 26.4451 24.3137 26.625 23.8617 26.625ZM23.8617 19.7917H18.7485V16.375H23.8617C24.3137 16.375 24.7472 16.555 25.0669 16.8754C25.3865 17.1958 25.5661 17.6303 25.5661 18.0834C25.5661 18.5365 25.3865 18.971 25.0669 19.2913C24.7472 19.6117 24.3137 19.7917 23.8617 19.7917Z" fill="black"/>
<line x1="0.371197" y1="0.665018" x2="37.3712" y2="41.665" stroke="black"/>
</svg>
